<svg xmlns="http://www.w3.org/2000/svg" viewBox="0 0 600 450" width="600" height="450"><defs><radialGradient id="g1" cx="0.5" cy="0.42" r="0.75"><stop offset="0" stop-color="#FFE2D2"/><stop offset="1" stop-color="#F5B79A"/></radialGradient><linearGradient id="g2" x1="0" y1="0" x2="0" y2="1"><stop offset="0" stop-color="#C2381C"/><stop offset="1" stop-color="#7A1A0A"/></linearGradient><linearGradient id="g3" x1="0" y1="0" x2="0" y2="1"><stop offset="0" stop-color="#C2381C"/><stop offset="1" stop-color="#7A1A0A"/></linearGradient><linearGradient id="g4" x1="0" y1="0" x2="0" y2="1"><stop offset="0" stop-color="#C2381C"/><stop offset="1" stop-color="#7A1A0A"/></linearGradient><linearGradient id="g5" x1="0" y1="0" x2="0" y2="1"><stop offset="0" stop-color="#C2381C"/><stop offset="1" stop-color="#7A1A0A"/></linearGradient><linearGradient id="g6" x1="0" y1="0" x2="0" y2="1"><stop offset="0" stop-color="#C2381C"/><stop offset="1" stop-color="#7A1A0A"/></linearGradient><linearGradient id="g7" x1="0" y1="0" x2="0" y2="1"><stop offset="0" stop-color="#C2381C"/><stop offset="1" stop-color="#7A1A0A"/></linearGradient><linearGradient id="g8" x1="0" y1="0" x2="0" y2="1"><stop offset="0" stop-color="#C2381C"/><stop offset="1" stop-color="#7A1A0A"/></linearGradient><linearGradient id="g9" x1="0" y1="0" x2="0" y2="1"><stop offset="0" stop-color="#F2B045"/><stop offset="1" stop-color="#C2701E"/></linearGradient><linearGradient id="g10" x1="0" y1="0" x2="0" y2="1"><stop offset="0" stop-color="#F2B045"/><stop offset="1" stop-color="#C2701E"/></linearGradient><linearGradient id="g11" x1="0" y1="0" x2="0" y2="1"><stop offset="0" stop-color="#F2B045"/><stop offset="1" stop-color="#C2701E"/></linearGradient></defs><rect width="600" height="450" fill="url(#g1)"/><path d="M300 210 L820 210 L816 272 Z" fill="#FFFFFF" opacity="0.13"/><path d="M300 210 L769 436 L738 490 Z" fill="#FFFFFF" opacity="0.13"/><path d="M300 210 L624 617 L573 652 Z" fill="#FFFFFF" opacity="0.13"/><path d="M300 210 L416 717 L354 727 Z" fill="#FFFFFF" opacity="0.13"/><path d="M300 210 L184 717 L124 699 Z" fill="#FFFFFF" opacity="0.13"/><path d="M300 210 L-24 617 L-71 575 Z" fill="#FFFFFF" opacity="0.13"/><path d="M300 210 L-169 436 L-192 378 Z" fill="#FFFFFF" opacity="0.13"/><path d="M300 210 L-220 210 L-216 148 Z" fill="#FFFFFF" opacity="0.13"/><path d="M300 210 L-169 -16 L-138 -70 Z" fill="#FFFFFF" opacity="0.13"/><path d="M300 210 L-24 -197 L27 -232 Z" fill="#FFFFFF" opacity="0.13"/><path d="M300 210 L184 -297 L246 -307 Z" fill="#FFFFFF" opacity="0.13"/><path d="M300 210 L416 -297 L476 -279 Z" fill="#FFFFFF" opacity="0.13"/><path d="M300 210 L624 -197 L671 -155 Z" fill="#FFFFFF" opacity="0.13"/><path d="M300 210 L769 -16 L792 42 Z" fill="#FFFFFF" opacity="0.13"/><ellipse cx="300" cy="392" rx="210" ry="22" fill="#5A2E12" opacity="0.18"/><ellipse cx="300" cy="350" rx="230" ry="48" fill="#F7F3EC"/><ellipse cx="300" cy="344" rx="210" ry="38" fill="#ECE6DB"/><g transform="rotate(-12 150 320)"><path d="M102 320 Q100 286 142 290 L180 306 Q202 298 206 316 Q202 334 180 326 L142 346 Q104 350 102 320 Z" fill="url(#g2)"/><path d="M120 306 Q136 298 150 304" stroke="#FF9A6A" stroke-width="4" fill="none" stroke-linecap="round"/></g><g transform="rotate(34 245 320)"><path d="M197 320 Q195 286 237 290 L275 306 Q297 298 301 316 Q297 334 275 326 L237 346 Q199 350 197 320 Z" fill="url(#g3)"/><path d="M215 306 Q231 298 245 304" stroke="#FF9A6A" stroke-width="4" fill="none" stroke-linecap="round"/></g><g transform="rotate(32 340 320)"><path d="M292 320 Q290 286 332 290 L370 306 Q392 298 396 316 Q392 334 370 326 L332 346 Q294 350 292 320 Z" fill="url(#g4)"/><path d="M310 306 Q326 298 340 304" stroke="#FF9A6A" stroke-width="4" fill="none" stroke-linecap="round"/></g><g transform="rotate(29 435 320)"><path d="M387 320 Q385 286 427 290 L465 306 Q487 298 491 316 Q487 334 465 326 L427 346 Q389 350 387 320 Z" fill="url(#g5)"/><path d="M405 306 Q421 298 435 304" stroke="#FF9A6A" stroke-width="4" fill="none" stroke-linecap="round"/></g><g transform="rotate(20 198 270)"><path d="M150 270 Q148 236 190 240 L228 256 Q250 248 254 266 Q250 284 228 276 L190 296 Q152 300 150 270 Z" fill="url(#g6)"/><path d="M168 256 Q184 248 198 254" stroke="#FF9A6A" stroke-width="4" fill="none" stroke-linecap="round"/></g><g transform="rotate(26 293 270)"><path d="M245 270 Q243 236 285 240 L323 256 Q345 248 349 266 Q345 284 323 276 L285 296 Q247 300 245 270 Z" fill="url(#g7)"/><path d="M263 256 Q279 248 293 254" stroke="#FF9A6A" stroke-width="4" fill="none" stroke-linecap="round"/></g><g transform="rotate(-35 388 270)"><path d="M340 270 Q338 236 380 240 L418 256 Q440 248 444 266 Q440 284 418 276 L380 296 Q342 300 340 270 Z" fill="url(#g8)"/><path d="M358 256 Q374 248 388 254" stroke="#FF9A6A" stroke-width="4" fill="none" stroke-linecap="round"/></g><circle cx="343" cy="282" r="2.5" fill="#FFFFFF" opacity="0.8"/><circle cx="378" cy="299" r="2.5" fill="#FFFFFF" opacity="0.8"/><circle cx="320" cy="309" r="2.5" fill="#FFFFFF" opacity="0.8"/><circle cx="326" cy="334" r="2.5" fill="#FFFFFF" opacity="0.8"/><circle cx="464" cy="291" r="2.5" fill="#FFFFFF" opacity="0.8"/><circle cx="404" cy="340" r="2.5" fill="#FFFFFF" opacity="0.8"/><circle cx="263" cy="271" r="2.5" fill="#FFFFFF" opacity="0.8"/><circle cx="299" cy="329" r="2.5" fill="#FFFFFF" opacity="0.8"/><circle cx="308" cy="277" r="2.5" fill="#FFFFFF" opacity="0.8"/><circle cx="370" cy="289" r="2.5" fill="#FFFFFF" opacity="0.8"/><circle cx="431" cy="275" r="2.5" fill="#FFFFFF" opacity="0.8"/><circle cx="332" cy="295" r="2.5" fill="#FFFFFF" opacity="0.8"/><circle cx="465" cy="272" r="2.5" fill="#FFFFFF" opacity="0.8"/><circle cx="429" cy="298" r="2.5" fill="#FFFFFF" opacity="0.8"/><g transform="rotate(-10 230 230)"><path d="M200.0 224.0 L200.0 197.6 L204.3 196.5 L208.6 198.5 L212.9 201.5 L217.1 202.0 L221.4 201.6 L225.7 199.3 L230.0 196.7 L234.3 198.6 L238.6 199.5 L242.9 197.1 L247.1 201.9 L251.4 195.6 L255.7 196.6 L260.0 196.4 L260.0 247.2 L255.7 246.4 L251.4 247.7 L247.1 248.6 L242.9 252.6 L238.6 249.8 L234.3 250.4 L230.0 248.4 L225.7 247.2 L221.4 249.9 L217.1 251.1 L212.9 246.6 L208.6 250.5 L204.3 247.5 L200.0 250.8 Z" fill="url(#g9)" stroke="#A65A14" stroke-width="2" stroke-linejoin="round"/><circle cx="223.6" cy="210.8" r="1.7" fill="#FFD27A" opacity="0.75"/><circle cx="242.9" cy="226.1" r="1.6" fill="#FFD27A" opacity="0.75"/><circle cx="247.8" cy="215.8" r="2.0" fill="#FFD27A" opacity="0.75"/><circle cx="208.1" cy="216.7" r="2.5" fill="#FFD27A" opacity="0.75"/><circle cx="247.5" cy="216.7" r="2.3" fill="#FFD27A" opacity="0.75"/><circle cx="211.5" cy="231.8" r="2.0" fill="#FFD27A" opacity="0.75"/><circle cx="224.5" cy="215.6" r="2.9" fill="#FFD27A" opacity="0.75"/><circle cx="251.1" cy="210.4" r="2.3" fill="#FFD27A" opacity="0.75"/></g><g transform="rotate(0 300 230)"><path d="M270.0 224.0 L270.0 195.7 L274.3 200.3 L278.6 201.4 L282.9 195.9 L287.1 199.8 L291.4 197.1 L295.7 198.2 L300.0 199.0 L304.3 197.7 L308.6 199.6 L312.9 197.3 L317.1 198.5 L321.4 197.5 L325.7 198.0 L330.0 196.0 L330.0 248.5 L325.7 246.8 L321.4 250.3 L317.1 248.9 L312.9 248.9 L308.6 252.3 L304.3 247.1 L300.0 249.7 L295.7 250.3 L291.4 250.4 L287.1 251.3 L282.9 248.5 L278.6 252.5 L274.3 250.7 L270.0 246.5 Z" fill="url(#g10)" stroke="#A65A14" stroke-width="2" stroke-linejoin="round"/><circle cx="304.6" cy="225.2" r="3.1" fill="#FFD27A" opacity="0.75"/><circle cx="309.9" cy="231.3" r="2.7" fill="#FFD27A" opacity="0.75"/><circle cx="309.2" cy="222.4" r="2.3" fill="#FFD27A" opacity="0.75"/><circle cx="301.4" cy="205.8" r="2.4" fill="#FFD27A" opacity="0.75"/><circle cx="296.6" cy="221.7" r="2.5" fill="#FFD27A" opacity="0.75"/><circle cx="306.7" cy="220.2" r="2.5" fill="#FFD27A" opacity="0.75"/><circle cx="288.3" cy="243.1" r="2.6" fill="#FFD27A" opacity="0.75"/><circle cx="308.8" cy="233.8" r="1.5" fill="#FFD27A" opacity="0.75"/></g><g transform="rotate(10 370 230)"><path d="M340.0 224.0 L340.0 196.2 L344.3 197.6 L348.6 198.1 L352.9 197.8 L357.1 198.6 L361.4 199.4 L365.7 200.2 L370.0 199.9 L374.3 197.8 L378.6 200.9 L382.9 200.7 L387.1 201.7 L391.4 195.1 L395.7 199.0 L400.0 196.2 L400.0 252.0 L395.7 252.6 L391.4 250.7 L387.1 248.3 L382.9 252.1 L378.6 249.6 L374.3 250.9 L370.0 247.3 L365.7 246.8 L361.4 251.8 L357.1 252.0 L352.9 248.7 L348.6 246.6 L344.3 248.1 L340.0 252.4 Z" fill="url(#g11)" stroke="#A65A14" stroke-width="2" stroke-linejoin="round"/><circle cx="357.7" cy="234.2" r="2.0" fill="#FFD27A" opacity="0.75"/><circle cx="389.5" cy="218.3" r="3.1" fill="#FFD27A" opacity="0.75"/><circle cx="370.3" cy="205.3" r="2.2" fill="#FFD27A" opacity="0.75"/><circle cx="366.7" cy="210.9" r="1.6" fill="#FFD27A" opacity="0.75"/><circle cx="372.6" cy="233.3" r="2.7" fill="#FFD27A" opacity="0.75"/><circle cx="362.3" cy="212.0" r="2.3" fill="#FFD27A" opacity="0.75"/><circle cx="379.7" cy="213.3" r="3.0" fill="#FFD27A" opacity="0.75"/><circle cx="391.0" cy="218.2" r="1.7" fill="#FFD27A" opacity="0.75"/></g></svg>
