<svg xmlns="http://www.w3.org/2000/svg" viewBox="0 0 600 450" width="600" height="450"><defs><radialGradient id="g1" cx="0.5" cy="0.42" r="0.75"><stop offset="0" stop-color="#FFE8C7"/><stop offset="1" stop-color="#F7C88A"/></radialGradient><linearGradient id="g2" x1="0" y1="0" x2="0" y2="1"><stop offset="0" stop-color="#E9A04A"/><stop offset="1" stop-color="#B85E1E"/></linearGradient><linearGradient id="g3" x1="0" y1="0" x2="0" y2="1"><stop offset="0" stop-color="#7A3E1E"/><stop offset="1" stop-color="#3E1C0C"/></linearGradient><linearGradient id="g4" x1="0" y1="0" x2="0" y2="1"><stop offset="0" stop-color="#E58A3A"/><stop offset="1" stop-color="#A84A14"/></linearGradient></defs><rect width="600" height="450" fill="url(#g1)"/><path d="M300 210 L820 210 L816 272 Z" fill="#FFFFFF" opacity="0.13"/><path d="M300 210 L769 436 L738 490 Z" fill="#FFFFFF" opacity="0.13"/><path d="M300 210 L624 617 L573 652 Z" fill="#FFFFFF" opacity="0.13"/><path d="M300 210 L416 717 L354 727 Z" fill="#FFFFFF" opacity="0.13"/><path d="M300 210 L184 717 L124 699 Z" fill="#FFFFFF" opacity="0.13"/><path d="M300 210 L-24 617 L-71 575 Z" fill="#FFFFFF" opacity="0.13"/><path d="M300 210 L-169 436 L-192 378 Z" fill="#FFFFFF" opacity="0.13"/><path d="M300 210 L-220 210 L-216 148 Z" fill="#FFFFFF" opacity="0.13"/><path d="M300 210 L-169 -16 L-138 -70 Z" fill="#FFFFFF" opacity="0.13"/><path d="M300 210 L-24 -197 L27 -232 Z" fill="#FFFFFF" opacity="0.13"/><path d="M300 210 L184 -297 L246 -307 Z" fill="#FFFFFF" opacity="0.13"/><path d="M300 210 L416 -297 L476 -279 Z" fill="#FFFFFF" opacity="0.13"/><path d="M300 210 L624 -197 L671 -155 Z" fill="#FFFFFF" opacity="0.13"/><path d="M300 210 L769 -16 L792 42 Z" fill="#FFFFFF" opacity="0.13"/><ellipse cx="300" cy="392" rx="210" ry="22" fill="#5A2E12" opacity="0.18"/><path d="M145.0 348 L455.0 348 Q449.0 388 433.0 388 L167.0 388 Q151.0 388 145.0 348 Z" fill="url(#g2)"/><rect x="149.0" y="348" width="302" height="5" fill="#FFE0A8" opacity="0.65"/><rect x="148.0" y="308" width="304" height="40" rx="20.0" fill="url(#g3)"/><circle cx="225.6" cy="329.4" r="2.1" fill="#2A1206" opacity="0.5"/><circle cx="329.5" cy="332.0" r="1.6" fill="#2A1206" opacity="0.5"/><circle cx="161.7" cy="338.8" r="1.9" fill="#2A1206" opacity="0.5"/><circle cx="224.5" cy="343.9" r="2.2" fill="#2A1206" opacity="0.5"/><circle cx="395.6" cy="327.2" r="2.5" fill="#2A1206" opacity="0.5"/><circle cx="200.8" cy="332.3" r="2.8" fill="#2A1206" opacity="0.5"/><circle cx="306.6" cy="335.7" r="2.5" fill="#2A1206" opacity="0.5"/><circle cx="176.2" cy="336.3" r="2.4" fill="#2A1206" opacity="0.5"/><circle cx="243.6" cy="313.0" r="2.8" fill="#2A1206" opacity="0.5"/><circle cx="292.3" cy="335.0" r="2.8" fill="#2A1206" opacity="0.5"/><circle cx="360.8" cy="341.5" r="2.1" fill="#2A1206" opacity="0.5"/><circle cx="385.5" cy="326.2" r="2.9" fill="#2A1206" opacity="0.5"/><circle cx="407.6" cy="315.1" r="1.7" fill="#2A1206" opacity="0.5"/><circle cx="219.6" cy="342.9" r="2.2" fill="#2A1206" opacity="0.5"/><circle cx="336.0" cy="321.6" r="2.3" fill="#2A1206" opacity="0.5"/><circle cx="267.6" cy="323.2" r="2.4" fill="#2A1206" opacity="0.5"/><circle cx="323.9" cy="340.9" r="2.5" fill="#2A1206" opacity="0.5"/><circle cx="421.8" cy="339.4" r="3.0" fill="#2A1206" opacity="0.5"/><circle cx="348.6" cy="317.2" r="2.8" fill="#2A1206" opacity="0.5"/><circle cx="432.0" cy="341.0" r="2.4" fill="#2A1206" opacity="0.5"/><circle cx="360.7" cy="318.8" r="2.7" fill="#2A1206" opacity="0.5"/><circle cx="320.9" cy="321.1" r="1.6" fill="#2A1206" opacity="0.5"/><circle cx="400.5" cy="343.7" r="1.6" fill="#2A1206" opacity="0.5"/><circle cx="385.4" cy="325.1" r="1.7" fill="#2A1206" opacity="0.5"/><circle cx="241.5" cy="336.6" r="2.8" fill="#2A1206" opacity="0.5"/><circle cx="170.5" cy="331.7" r="1.6" fill="#2A1206" opacity="0.5"/><circle cx="362.0" cy="322.6" r="2.8" fill="#2A1206" opacity="0.5"/><circle cx="436.5" cy="328.2" r="3.0" fill="#2A1206" opacity="0.5"/><circle cx="245.9" cy="314.5" r="2.4" fill="#2A1206" opacity="0.5"/><circle cx="166.9" cy="318.3" r="2.1" fill="#2A1206" opacity="0.5"/><circle cx="331.4" cy="317.0" r="1.6" fill="#2A1206" opacity="0.5"/><circle cx="404.4" cy="322.0" r="2.9" fill="#2A1206" opacity="0.5"/><circle cx="412.7" cy="324.1" r="2.2" fill="#2A1206" opacity="0.5"/><path d="M208.8 311 l14 34" stroke="#1E0C04" stroke-width="4" opacity="0.35" stroke-linecap="round"/><path d="M269.6 311 l14 34" stroke="#1E0C04" stroke-width="4" opacity="0.35" stroke-linecap="round"/><path d="M330.40000000000003 311 l14 34" stroke="#1E0C04" stroke-width="4" opacity="0.35" stroke-linecap="round"/><path d="M391.20000000000005 311 l14 34" stroke="#1E0C04" stroke-width="4" opacity="0.35" stroke-linecap="round"/><path d="M144.0 294 L456.0 294 L446.0 304 L438.0 304 Q430.0 320 422.0 304 L370.5 304 Q362.5 330 354.5 304 L303.0 304 Q295.0 320 287.0 304 L235.5 304 Q227.5 330 219.5 304 L168.0 304 Q160.0 320 152.0 304 L154.0 304 Z" fill="#FFF0C8"/><rect x="144.0" y="294" width="312" height="3" fill="#FFE38A"/><ellipse cx="197.7" cy="285" rx="13" ry="5" fill="#3E8A2E" stroke="#B6E07E" stroke-width="2.5"/><ellipse cx="269.0" cy="285" rx="13" ry="5" fill="#3E8A2E" stroke="#B6E07E" stroke-width="2.5"/><ellipse cx="337.2" cy="285" rx="13" ry="5" fill="#3E8A2E" stroke="#B6E07E" stroke-width="2.5"/><ellipse cx="405.4" cy="285" rx="13" ry="5" fill="#3E8A2E" stroke="#B6E07E" stroke-width="2.5"/><path d="M145.0 272 L455.0 272 L443.0 272 Q437.0 286 431.0 272 L351.6666666666667 272 Q345.6666666666667 294 339.6666666666667 272 L260.33333333333337 272 Q254.33333333333334 286 248.33333333333334 272 L169.0 272 Q163.0 294 157.0 272 Z" fill="#D2401E"/><path d="M135.0 262 Q116.66666666666667 250 135.0 262 Q153.33333333333331 254 171.66666666666666 268 Q189.99999999999997 250 208.33333333333331 262 Q226.66666666666666 254 245.0 268 Q263.3333333333333 250 281.66666666666663 262 Q300.00000000000006 254 318.33333333333337 268 Q336.6666666666667 250 355.0 262 Q373.33333333333337 254 391.6666666666667 268 Q410.0 250 428.3333333333333 262 Q446.6666666666667 254 465.0 268 L455.0 270 L145.0 270 Z" fill="#6DBA3E"/><path d="M145.0 260 Q300 254 455.0 260" stroke="#A8E27A" stroke-width="3" fill="none"/><path d="M142.0 256 C142.0 145.60000000000002 458.0 145.60000000000002 458.0 256 Q300 271.36 142.0 256 Z" fill="url(#g4)"/><path d="M198.88 196.48000000000002 Q268.4 173.44 337.92 179.2" stroke="#FFE2B0" stroke-width="8.6" fill="none" stroke-linecap="round" opacity="0.7"/><ellipse cx="304.8" cy="203.9" rx="5" ry="2.6" fill="#FFF3D6" transform="rotate(8 304.8 203.9)"/><ellipse cx="314.2" cy="205.3" rx="5" ry="2.6" fill="#FFF3D6" transform="rotate(35 314.2 205.3)"/><ellipse cx="301.7" cy="213.5" rx="5" ry="2.6" fill="#FFF3D6" transform="rotate(18 301.7 213.5)"/><ellipse cx="237.0" cy="225.3" rx="5" ry="2.6" fill="#FFF3D6" transform="rotate(38 237.0 225.3)"/><ellipse cx="305.1" cy="208.2" rx="5" ry="2.6" fill="#FFF3D6" transform="rotate(-39 305.1 208.2)"/><ellipse cx="279.6" cy="207.6" rx="5" ry="2.6" fill="#FFF3D6" transform="rotate(-38 279.6 207.6)"/><ellipse cx="327.8" cy="206.0" rx="5" ry="2.6" fill="#FFF3D6" transform="rotate(-35 327.8 206.0)"/><ellipse cx="330.6" cy="213.6" rx="5" ry="2.6" fill="#FFF3D6" transform="rotate(14 330.6 213.6)"/><ellipse cx="264.6" cy="203.7" rx="5" ry="2.6" fill="#FFF3D6" transform="rotate(19 264.6 203.7)"/><ellipse cx="185.2" cy="243.9" rx="5" ry="2.6" fill="#FFF3D6" transform="rotate(14 185.2 243.9)"/><ellipse cx="411.3" cy="238.7" rx="5" ry="2.6" fill="#FFF3D6" transform="rotate(-3 411.3 238.7)"/><ellipse cx="322.3" cy="219.3" rx="5" ry="2.6" fill="#FFF3D6" transform="rotate(-11 322.3 219.3)"/><ellipse cx="255.0" cy="219.6" rx="5" ry="2.6" fill="#FFF3D6" transform="rotate(8 255.0 219.6)"/><ellipse cx="252.1" cy="219.7" rx="5" ry="2.6" fill="#FFF3D6" transform="rotate(22 252.1 219.7)"/><ellipse cx="186.4" cy="232.5" rx="5" ry="2.6" fill="#FFF3D6" transform="rotate(19 186.4 232.5)"/><ellipse cx="254.4" cy="225.8" rx="5" ry="2.6" fill="#FFF3D6" transform="rotate(24 254.4 225.8)"/><ellipse cx="237.2" cy="229.6" rx="5" ry="2.6" fill="#FFF3D6" transform="rotate(-5 237.2 229.6)"/><ellipse cx="347.6" cy="231.0" rx="5" ry="2.6" fill="#FFF3D6" transform="rotate(-14 347.6 231.0)"/><ellipse cx="260.1" cy="199.1" rx="5" ry="2.6" fill="#FFF3D6" transform="rotate(-5 260.1 199.1)"/></svg>
